<svg width="81" height="48" viewBox="0 0 81 48" fill="none" xmlns="http://www.w3.org/2000/svg">
<g clip-path="url(#clip0_40_2678)">
<path d="M52.5117 11.2755C54.0917 11.4455 55.6117 11.9355 57.1617 12.2655C61.2217 13.1255 65.1917 14.3155 69.1617 15.4955C70.1017 15.7755 70.4317 16.1355 70.3817 17.1355C70.2717 19.3555 70.0917 21.5755 69.9417 23.7955C69.8417 25.3055 69.6117 26.8055 69.8017 28.3255C69.8917 29.0755 69.8617 29.8455 69.8417 30.5955C69.7917 32.6855 70.2117 34.7455 70.3217 36.8155C70.3517 37.4555 70.3917 38.0955 70.4217 38.7255C70.3717 39.6755 70.4517 40.6255 70.2817 41.5655C70.0717 42.7155 69.2817 43.5555 68.3117 43.5655C66.0817 43.5755 63.8517 43.7855 61.6217 43.7155C60.7917 43.6955 59.9517 43.6855 59.1317 43.7555C56.4417 43.9855 53.7417 44.1955 51.0317 44.1355C50.2517 44.1155 49.4517 44.1055 48.6817 44.2155C47.3517 44.4055 46.0417 44.3655 44.7217 44.2155C42.3117 43.9455 39.8917 43.9555 37.4717 44.0955C35.7417 44.1955 34.0117 44.2855 32.2817 44.2355C30.4817 44.1855 28.6917 44.0155 26.8817 43.9555C25.6617 43.9155 24.4217 43.8755 23.2017 43.6255C21.9917 43.3755 20.7617 43.2255 19.5217 43.3155C18.5417 43.3955 17.5917 43.3155 16.6417 43.0455C15.9317 42.8355 15.2017 42.7755 14.4617 42.9055C13.5817 43.0555 13.2217 42.7455 13.2217 41.8555C13.2217 40.6755 13.5117 39.4955 13.4017 38.3055C13.5817 36.5655 13.6917 34.8155 13.7017 33.0555C13.7017 30.1655 13.7017 27.2755 13.7317 24.3755C13.7517 22.3855 13.7317 20.3955 13.6717 18.4055C13.6517 17.7055 13.9317 17.2655 14.5317 16.9255C17.0117 15.5355 19.7417 14.7755 22.4317 13.9555C26.2217 12.8055 30.0517 11.8155 33.8917 10.8955C34.3317 10.7855 34.7717 10.7155 35.2117 10.6255C35.3917 10.9755 35.9317 11.1955 35.5217 11.7555C34.9217 12.5955 35.0317 13.2955 35.8517 13.9155C36.5617 14.4555 37.2717 14.9455 38.1917 15.1855C41.3217 16.0055 44.4217 16.3055 47.5917 15.4055C49.3317 14.9155 50.6917 13.9055 51.8517 12.5855C52.1817 12.2155 52.4817 11.8055 52.5017 11.2755H52.5117ZM19.2817 22.4555C19.0017 22.4355 18.7117 22.4155 18.4317 22.4055C18.1217 22.3955 17.8117 22.3955 17.5017 22.3855C16.4517 22.3755 16.3017 22.5355 16.1617 23.5555C15.9417 25.2155 16.0617 26.8655 16.2317 28.5155C16.2817 28.9755 16.4917 29.3555 17.0317 29.3355C19.3317 29.2355 21.6417 29.3055 23.9217 28.9655C26.1317 28.6355 28.3417 28.2555 30.5817 28.3755C34.0917 28.5655 37.6117 28.5655 41.1217 28.5655C46.0617 28.5655 50.9917 28.8655 55.9217 29.2555C58.2517 29.4355 60.5717 29.4955 62.8717 29.0655C64.8617 28.6955 66.1617 27.4655 66.3717 25.5855C66.5317 24.1855 66.7517 22.7755 66.4417 21.3355C66.1717 20.0955 66.1217 19.9755 64.8617 20.0355C63.2617 20.1155 61.6717 20.5855 60.0517 20.2355C59.8717 20.1955 59.6717 20.2455 59.4917 20.2855C58.7417 20.4555 57.9917 20.5055 57.2317 20.5255C55.4317 20.5655 53.6117 20.4955 51.8217 20.6755C49.4617 20.9255 47.0917 21.1955 44.7217 21.1855C40.6817 21.1655 36.6517 21.2555 32.6317 21.6655C30.4017 21.8955 28.1717 21.7455 25.9417 21.8855C23.7117 22.0155 21.5117 22.4955 19.2717 22.4555H19.2817ZM58.7317 40.6355C60.6317 40.6155 62.5617 40.3055 64.4817 40.0055C65.9317 39.7755 66.4317 39.0655 66.4317 37.5755C66.4217 34.6455 64.3517 32.5255 61.4417 32.4455C58.4717 32.3555 55.5117 32.6455 52.5417 32.7855C49.2417 32.9455 45.9417 32.9755 42.6717 33.4755C40.6917 33.7755 38.7017 33.8455 36.7017 33.7155C34.4217 33.5655 32.1517 33.5055 29.8717 33.4655C27.4917 33.4155 25.1017 33.1955 22.8517 32.4155C21.0617 31.7955 19.4217 31.8655 17.7417 32.6055C17.2517 32.8255 16.9117 33.1355 16.7417 33.6455C16.2917 34.9555 16.3517 36.2555 16.7917 37.5555C17.0317 38.2555 17.5017 38.6455 18.2417 38.7555C19.7217 38.9655 21.2017 39.2255 22.7017 39.1755C25.4617 39.0755 28.2017 39.3755 30.9517 39.5255C34.1517 39.7055 37.3417 39.9855 40.5617 39.7655C43.5517 39.5655 46.5517 39.6255 49.5217 40.0155C52.5617 40.4155 55.6317 40.4455 58.7417 40.6455L58.7317 40.6355ZM67.9217 17.7855C66.7417 18.2155 65.7417 18.0855 64.8417 17.5755C63.0717 16.5655 61.1517 16.5955 59.2317 16.7155C56.7017 16.8755 54.1717 17.0655 51.6417 17.2555C49.8017 17.3955 47.9417 17.4355 46.1117 17.7255C43.1717 18.1855 40.2017 18.2555 37.2517 18.4455C33.7717 18.6755 30.2717 18.6155 26.7817 18.6855C26.5017 18.6855 26.2117 18.6855 25.9317 18.7155C23.7317 18.8955 21.5217 18.8655 19.3117 18.7855C18.6817 18.7655 18.0517 18.6155 17.4517 18.3655C17.1617 18.2355 16.8317 18.0955 16.4317 18.1855C17.2317 18.8555 18.6017 19.2955 20.0117 19.3055C25.8817 19.3655 31.7417 19.2855 37.6117 19.1755C38.3717 19.1655 39.1317 19.0855 39.8817 19.0455C41.0417 18.9755 42.2017 18.9455 43.3617 18.8155C46.0217 18.5255 48.6817 18.2055 51.3617 18.0455C53.7317 17.9055 56.0917 17.6855 58.4517 17.5355C60.6317 17.3955 62.8117 17.2955 64.8917 18.2555C65.5217 18.5455 66.2317 18.5355 66.9217 18.4755C67.2817 18.4455 67.5917 18.2955 67.9217 17.7855Z" fill="#7BCA9A"/>
<path d="M13.4117 38.3157C13.5217 39.5057 13.2417 40.6757 13.2317 41.8657C13.2317 42.7557 13.5917 43.0657 14.4717 42.9157C15.2117 42.7857 15.9417 42.8457 16.6517 43.0557C17.6017 43.3357 18.5517 43.4057 19.5317 43.3257C20.7717 43.2257 22.0017 43.3857 23.2117 43.6357C24.4317 43.8857 25.6617 43.9257 26.8917 43.9657C28.6917 44.0257 30.4917 44.1957 32.2917 44.2457C34.0217 44.2957 35.7517 44.1957 37.4817 44.1057C39.9017 43.9657 42.3217 43.9557 44.7317 44.2257C46.0517 44.3757 47.3717 44.4257 48.6917 44.2257C49.4617 44.1157 50.2517 44.1257 51.0417 44.1457C53.7517 44.2057 56.4417 43.9957 59.1417 43.7657C59.9717 43.6957 60.8017 43.6957 61.6317 43.7257C63.8617 43.7957 66.0917 43.5857 68.3217 43.5757C69.3017 43.5757 70.0917 42.7257 70.2917 41.5757C70.4617 40.6357 70.3817 39.6857 70.4317 38.7357C72.4717 38.8757 74.4517 39.3157 76.4417 39.7557C77.5817 40.0057 78.6517 40.4557 79.7317 40.8657C79.8417 40.9057 79.9517 40.9557 80.0517 41.0157C80.7017 41.4157 81.3217 41.9257 81.2317 42.7457C81.1417 43.5657 80.5417 44.0957 79.7717 44.4357C76.8717 45.7057 73.7717 46.0957 70.6917 46.5857C67.9317 47.0257 65.1417 47.1557 62.3817 47.5257C61.4917 47.6457 60.5817 47.6357 59.6917 47.6757C57.3217 47.7557 54.9617 47.9557 52.5917 48.0357C50.7417 48.1057 48.8917 48.0357 47.0517 48.1557C43.3017 48.4157 39.5517 48.2657 35.8017 48.2557C32.6317 48.2557 29.4517 48.1357 26.2817 47.9657C23.8717 47.8357 21.4517 47.7557 19.0617 47.5157C16.2417 47.2357 13.4117 47.0457 10.6117 46.5957C8.06167 46.1857 5.50167 45.8557 3.05167 45.0157C2.36167 44.7757 1.63167 44.6057 1.03167 44.1557C0.471669 43.7357 -0.0883318 43.2757 0.0116682 42.4857C0.121668 41.6757 0.721668 41.2157 1.40167 40.8957C3.97167 39.7057 6.73167 39.2757 9.49167 38.8657C10.8017 38.6757 12.1117 38.4857 13.4217 38.3057L13.4117 38.3157Z" fill="#F6EBD1"/>
<path d="M52.5117 11.2757C52.5017 11.8157 52.1917 12.2157 51.8617 12.5857C50.6917 13.9057 49.3317 14.9157 47.6017 15.4057C44.4317 16.3057 41.3317 16.0057 38.2017 15.1857C37.2917 14.9457 36.5717 14.4557 35.8617 13.9157C35.0517 13.2957 34.9317 12.5957 35.5317 11.7557C35.9417 11.1857 35.4017 10.9757 35.2217 10.6257C35.1317 10.0257 34.9617 9.4157 35.0917 8.8057C35.4017 7.3557 36.5317 6.6957 37.7217 6.0957C37.5517 7.5457 38.3117 8.4157 39.5217 9.0157C39.9517 9.2257 40.4017 9.3857 40.8717 9.4657C43.9217 10.0357 46.8117 9.5857 49.5217 8.0357C51.2117 8.2257 51.7617 8.7357 52.0217 10.4357C52.0817 10.8057 52.4817 10.9157 52.5117 11.2657V11.2757Z" fill="#FCFCFC"/>
<path d="M49.5214 8.04548C46.8114 9.58548 43.9314 10.0455 40.8714 9.47548C40.4014 9.38548 39.9514 9.23548 39.5214 9.02548C38.3114 8.42548 37.5514 7.55548 37.7214 6.10548C38.1914 4.52548 38.7114 2.99547 40.0914 1.90547C41.2414 1.00547 42.5714 0.475477 43.9214 0.0754768C44.9214 -0.224523 45.7614 0.425478 46.4814 1.04548C47.7714 2.15548 48.7114 3.57548 49.7014 4.92548C50.4514 5.95548 50.4114 7.05548 49.5114 8.04548H49.5214Z" fill="#CF3229"/>
<path d="M19.2817 22.4557C21.5217 22.4857 23.7217 22.0157 25.9517 21.8857C28.1817 21.7557 30.4217 21.8857 32.6417 21.6657C36.6617 21.2557 40.6917 21.1657 44.7317 21.1857C47.1017 21.1957 49.4717 20.9257 51.8317 20.6757C53.6217 20.4857 55.4317 20.5657 57.2417 20.5257C58.0017 20.5057 58.7617 20.4557 59.5017 20.2857C59.6817 20.2457 59.8917 20.1957 60.0617 20.2357C61.6817 20.5757 63.2717 20.1057 64.8717 20.0357C66.1217 19.9757 66.1817 20.0957 66.4517 21.3357C66.7617 22.7757 66.5317 24.1757 66.3817 25.5857C66.1717 27.4757 64.8717 28.6957 62.8817 29.0657C60.5717 29.4957 58.2617 29.4357 55.9317 29.2557C51.0117 28.8657 46.0817 28.5757 41.1317 28.5657C37.6117 28.5657 34.1017 28.5657 30.5917 28.3757C28.3517 28.2557 26.1417 28.6357 23.9317 28.9657C21.6417 29.3057 19.3317 29.2357 17.0417 29.3357C16.5017 29.3557 16.2917 28.9857 16.2417 28.5157C16.0717 26.8657 15.9517 25.2157 16.1717 23.5557C16.3117 22.5357 16.4517 22.3657 17.5117 22.3857C17.8217 22.3857 18.1317 22.3857 18.4417 22.4057C18.7217 22.4157 19.0117 22.4357 19.2917 22.4557H19.2817Z" fill="#7E0608"/>
<path d="M58.7318 40.6355C55.6218 40.4455 52.5618 40.4055 49.5118 40.0055C46.5318 39.6155 43.5418 39.5555 40.5518 39.7555C37.3318 39.9655 34.1418 39.6955 30.9418 39.5155C28.1918 39.3555 25.4518 39.0555 22.6918 39.1655C21.1818 39.2255 19.7118 38.9655 18.2318 38.7455C17.5018 38.6355 17.0218 38.2455 16.7818 37.5455C16.3418 36.2455 16.2918 34.9455 16.7318 33.6355C16.9018 33.1355 17.2418 32.8155 17.7318 32.5955C19.4118 31.8555 21.0518 31.7855 22.8418 32.4055C25.0918 33.1855 27.4818 33.4055 29.8618 33.4555C32.1418 33.5055 34.4218 33.5655 36.6918 33.7055C38.6918 33.8355 40.6818 33.7755 42.6618 33.4655C45.9318 32.9655 49.2418 32.9355 52.5318 32.7755C55.4918 32.6355 58.4518 32.3455 61.4318 32.4355C64.3418 32.5155 66.4118 34.6355 66.4218 37.5655C66.4218 39.0555 65.9218 39.7655 64.4718 39.9955C62.5518 40.2955 60.6218 40.6055 58.7218 40.6255L58.7318 40.6355Z" fill="#7E0608"/>
<path d="M67.9216 17.7856C67.5916 18.2956 67.2816 18.4456 66.9216 18.4756C66.2316 18.5356 65.5216 18.5456 64.8916 18.2556C62.8216 17.2956 60.6416 17.3956 58.4516 17.5356C56.0816 17.6856 53.7216 17.9056 51.3616 18.0456C48.6816 18.2056 46.0216 18.5256 43.3616 18.8156C42.2116 18.9356 41.0416 18.9756 39.8816 19.0456C39.1216 19.0956 38.3616 19.1656 37.6116 19.1756C31.7516 19.2856 25.8816 19.3756 20.0116 19.3056C18.6016 19.2956 17.2316 18.8456 16.4316 18.1856C16.8316 18.0956 17.1616 18.2356 17.4516 18.3656C18.0516 18.6156 18.6816 18.7656 19.3116 18.7856C21.5216 18.8656 23.7216 18.8956 25.9316 18.7156C26.2116 18.6956 26.5016 18.6956 26.7816 18.6856C30.2716 18.6156 33.7716 18.6756 37.2516 18.4456C40.2016 18.2556 43.1716 18.1856 46.1116 17.7256C47.9316 17.4456 49.7916 17.3956 51.6416 17.2556C54.1716 17.0656 56.7016 16.8756 59.2316 16.7156C61.1616 16.5956 63.0716 16.5656 64.8416 17.5756C65.7416 18.0856 66.7416 18.2156 67.9216 17.7856Z" fill="#E9F5ED"/>
</g>
<defs>
<clipPath id="clip0_40_2678">
<rect width="81" height="48" fill="white"/>
</clipPath>
</defs>
</svg>
