<svg width="56" height="42" viewBox="0 0 56 42" fill="none" xmlns="http://www.w3.org/2000/svg">
<g clip-path="url(#clip0_40_2677)">
<path d="M37.7501 41.9763C37.4256 41.9763 37.1012 41.9763 36.767 41.9763C36.5802 41.5929 36.3934 41.5929 36.1968 41.9763C35.017 41.9566 33.8275 42.0943 32.6477 41.8681C30.4947 41.4454 28.4793 40.6687 26.5131 39.6758C24.3109 38.5649 22.4725 37.0509 20.8602 35.2223C20.5751 34.9077 20.3883 34.9864 20.1917 35.2518C19.0513 36.7756 17.4193 37.5425 15.7186 38.1913C15.3646 38.3289 14.9911 38.3584 14.6175 38.3584C14.352 37.8865 13.89 37.916 13.4476 37.9259C12.7692 37.9259 11.9729 38.093 11.4912 37.6506C10.8718 37.0902 10.1443 36.6577 9.58396 36.0383C9.38733 35.8318 9.19071 35.6352 8.86629 35.6844C8.65983 35.4878 8.74831 35.2223 8.71882 34.9864C8.65983 34.4063 9.29885 34.2392 9.42666 33.7673C9.68227 32.853 9.82973 31.8502 10.9308 31.4767C11.0193 31.4472 11.0586 31.2997 11.1274 31.2112C11.5895 31.2112 12.0516 31.2112 12.5136 31.2112C12.6414 31.5455 12.8381 31.5258 13.0838 31.339C13.2215 31.339 13.3591 31.339 13.4967 31.3489C13.6442 31.9289 14.2144 32.1059 14.5782 32.4696C14.8141 32.7055 15.0107 32.9317 14.6273 33.1971C14.3815 33.3642 14.2341 33.6002 14.4012 33.8361C14.6076 34.1507 14.8534 33.8361 15.0697 33.7673C15.2368 33.7182 15.4433 33.6788 15.463 33.4429C16.3674 33.2266 16.741 31.8109 16.3379 31.1326C15.345 29.4515 14.1161 28.0751 12.1204 27.5344C10.6359 27.1313 9.33818 26.2563 8.02081 25.4993C6.3102 24.5064 4.65857 23.4152 2.98729 22.3632C2.87914 21.852 2.66286 21.4391 2.16147 21.1638C1.84688 20.9869 1.61093 20.7018 1.64042 20.2495C1.66992 19.758 1.49296 19.2566 1.19803 18.883C0.912923 18.5291 0.293564 18.3423 0.844105 17.7426C0.863768 17.7131 0.814612 17.6148 0.785119 17.5558C0.608159 17.2609 0.588497 16.9365 0.608159 16.612C0.61799 16.2286 0.431199 16.0517 0.0576172 16.0713C0.0576172 15.8354 0.0576172 15.6093 0.0576172 15.3733C0.401706 15.2455 0.814612 15.1472 0.863768 14.7146C1.07022 12.9155 1.99434 11.6375 3.55749 10.733C4.44229 10.212 5.46472 10.1923 6.36919 9.76958C6.69361 9.76958 7.02787 9.76958 7.3523 9.76958C7.62757 9.76958 7.89301 9.82857 8.16828 9.85806C8.64017 9.90722 9.0924 9.81874 9.18088 9.21904C9.45615 9.30752 9.74125 9.396 10.0165 9.49431C10.3508 9.89739 10.7735 10.0743 11.2946 10.035C11.383 10.035 11.4715 10.035 11.56 10.035C11.6288 10.1432 11.7271 10.1825 11.8549 10.1825C12.2875 10.1628 12.5726 10.4873 12.9265 10.6446C13.0937 10.7232 13.2903 10.851 13.4476 10.7429C13.6049 10.6347 13.4377 10.4381 13.4476 10.2906C13.6737 8.81597 13.251 7.33147 13.5262 5.8568C13.5754 5.5717 13.7425 5.39474 13.949 5.23744C15.8857 3.72345 18.0977 2.76001 20.4375 2.08166C21.4599 1.78673 22.4627 1.36399 23.5245 1.21652C24.9991 1.01007 26.4738 0.852771 27.9485 0.665981C29.2167 0.508683 30.475 0.243243 31.7531 0.194088C33.5325 0.115439 35.312 -0.0811833 37.111 0.0367899C39.2247 0.184256 41.3188 0.489021 43.4128 0.695474C45.9001 0.951083 48.4266 1.04939 50.8648 1.67858C52.0347 1.97352 53.2537 2.32744 54.1778 3.10409C55.1511 3.91024 56.0064 4.86386 56.0261 6.34836C56.0458 7.93117 56.0064 9.50414 55.9671 11.0771C55.9376 12.4928 55.7115 13.8986 55.5444 15.3045C55.3281 17.1036 55.102 18.8928 54.866 20.6919C54.6694 22.1666 54.3253 23.6019 53.9812 25.0471C53.7059 26.1777 53.4208 27.3181 53.3717 28.4683C53.3422 29.3531 52.772 29.9528 52.5852 30.7393C52.2411 32.2238 51.3956 33.492 50.6681 34.8094C50.56 34.9962 50.4322 35.1535 50.2356 35.2518C49.8816 35.2813 49.803 35.5172 49.8227 35.822C49.8227 35.8613 49.8227 35.9105 49.8128 35.9498C49.626 36.0383 49.4392 36.1563 49.2426 36.2054C48.7609 36.3136 48.2988 36.3922 48.4955 37.0902C48.5348 37.218 48.348 37.4146 48.2595 37.395C47.6402 37.2377 47.3845 37.8177 46.9421 38.0143C45.8116 38.5354 44.7596 39.2334 43.5799 39.666C43.3046 39.7643 42.8622 39.9707 42.8819 40.2853C42.9311 41.0423 42.5378 40.8359 42.1544 40.7081C41.83 40.5901 41.5744 40.5213 41.5056 41.003C41.4859 41.1505 41.3483 41.2783 41.2598 41.4159C41.1221 41.4159 40.9747 41.4159 40.837 41.4159C40.6306 41.2291 40.5913 41.3962 40.5519 41.5535C40.4635 41.5535 40.3651 41.5535 40.2767 41.5535C40.1784 41.4257 40.08 41.4356 40.0014 41.5732C39.7753 41.5732 39.5393 41.5732 39.3132 41.5732C38.7725 41.6125 38.1531 41.3766 37.7599 41.9861L37.7501 41.9763ZM29.3052 10.1923C30.1801 10.1923 30.9273 10.1727 31.6744 10.1923C35.6954 10.3103 39.6966 9.74992 43.7077 9.76958C46.5882 9.78924 49.2426 9.1109 51.8675 8.0688C52.6344 7.76404 53.3225 7.3413 53.8436 6.68262C54.4433 5.92562 54.3843 5.06048 53.6076 4.45096C53.352 4.25433 53.0571 4.09704 52.7523 3.97906C51.0319 3.28105 49.2328 2.85832 47.4042 2.6322C44.9759 2.33727 42.5182 2.1898 40.0899 1.87521C37.6321 1.56061 35.1645 1.36399 32.687 1.59994C29.315 1.91453 25.9822 2.36676 22.738 3.45801C20.6439 4.16585 18.5106 4.7164 16.5051 5.68967C14.9911 6.41718 15.0107 6.38768 15.0304 8.12779C15.0304 8.73732 15.2958 9.03225 15.8365 9.16989C16.5345 9.34685 17.2424 9.49431 17.9404 9.6811C19.3856 10.0842 20.8504 10.3496 22.3546 10.3103C24.714 10.2513 27.0735 10.3791 29.3052 10.1923ZM7.65706 13.5447C7.42111 13.5447 7.18517 13.5349 6.95905 13.5447C5.5532 13.6135 3.98023 15.3438 4.28499 16.6219C4.51111 17.5853 5.07148 18.4504 5.69084 19.2468C6.60513 20.4265 7.91267 20.9475 9.27919 21.3899C10.4294 21.7635 11.5305 22.2551 12.6021 22.8056C13.7818 23.4053 14.9222 24.0837 15.9742 24.8997C16.0921 24.9881 16.22 25.0668 16.3478 24.9488C16.4559 24.8603 16.3871 24.7424 16.3772 24.6244C16.3379 24.2016 16.043 23.8674 16.0135 23.4348C15.925 22.3239 15.3941 21.3015 15.286 20.1906C15.286 20.0922 15.1779 19.9349 15.0992 19.9251C14.5782 19.8268 14.1358 19.4434 13.5754 19.4729C12.4448 19.5417 11.7173 18.9223 11.1471 18.0474C10.7145 17.3985 10.7735 16.73 11.1176 16.0615C11.2651 15.7764 11.4125 15.4716 11.619 15.2258C11.9238 14.8523 11.8058 14.6065 11.4224 14.4885C10.1935 14.0953 9.00392 13.5054 7.65706 13.5546V13.5447Z" fill="#F7EBD0"/>
<path d="M6.34965 9.76008C5.44519 10.1828 4.42276 10.2025 3.53796 10.7235C1.98464 11.628 1.05069 12.906 0.844236 14.7051C0.795081 15.1377 0.382175 15.236 0.0380859 15.3638C0.0675792 11.5592 2.98742 9.18005 6.47746 9.05225C6.4283 9.28819 6.38898 9.52414 6.33982 9.76008H6.34965Z" fill="#F7EBD0"/>
<path d="M41.25 41.4158C41.3385 41.2782 41.4761 41.1405 41.4958 41.0029C41.5548 40.5212 41.8202 40.5998 42.1446 40.708C42.528 40.8456 42.9213 41.0422 42.8721 40.2852C42.8525 39.9805 43.2949 39.7642 43.5701 39.6659C44.7597 39.2333 45.8018 38.5353 46.9324 38.0142C47.3748 37.8078 47.6304 37.2376 48.2497 37.3949C48.3382 37.4145 48.5152 37.2179 48.4857 37.0901C48.2891 36.4019 48.761 36.3233 49.2329 36.2053C49.4295 36.1562 49.6163 36.0382 49.8031 35.9497C49.3312 36.9033 48.5545 37.6013 47.7779 38.2797C45.9788 39.8625 43.7864 40.7178 41.5646 41.5043C41.4368 41.5436 41.3385 41.5043 41.2598 41.406L41.25 41.4158Z" fill="#F7EBD0"/>
<path d="M8.86628 35.6744C9.1907 35.6253 9.38732 35.8121 9.58395 36.0284C10.1542 36.6477 10.8718 37.0803 11.4912 37.6407C11.9729 38.0732 12.7791 37.9159 13.4476 37.9159C13.89 37.9159 14.352 37.8766 14.6175 38.3485C14.0964 38.8007 13.4574 38.6139 12.8774 38.5943C11.1962 38.5451 9.82972 37.9061 9.02357 36.3331C8.91543 36.1168 8.86628 35.9104 8.85645 35.6744H8.86628Z" fill="#F7EBD0"/>
<path d="M0.0477942 16.0614C0.421376 16.0516 0.617998 16.2187 0.598336 16.6022C0.588505 16.9266 0.598336 17.251 0.775296 17.5459C0.81462 17.6049 0.863776 17.7131 0.834283 17.7327C0.283741 18.3324 0.9031 18.5192 1.1882 18.8731C1.49297 19.2467 1.66993 19.7383 1.6306 20.2397C1.60111 20.6919 1.83706 20.977 2.15165 21.154C2.65304 21.4292 2.86932 21.8421 2.97746 22.3534C0.834282 20.8 -0.247139 18.7453 0.0477942 16.0614Z" fill="#F7EBD0"/>
<path d="M11.1272 31.2114C11.0682 31.2999 11.019 31.4474 10.9305 31.4769C9.82945 31.8504 9.69181 32.8532 9.42637 33.7675C9.28874 34.2492 8.65955 34.4164 8.71853 34.9866C8.53174 34.9374 8.47276 34.8096 8.45309 34.6228C8.2663 33.0498 9.40671 31.2802 11.1173 31.2114H11.1272Z" fill="#F7EBD0"/>
<path d="M15.4628 33.4427C15.4431 33.6884 15.2367 33.7179 15.0696 33.7671C14.8533 33.8359 14.6075 34.1505 14.401 33.8359C14.2437 33.5901 14.3814 33.364 14.6272 33.1969C15.0106 32.9413 14.814 32.7152 14.578 32.4694C14.2143 32.1056 13.644 31.9287 13.4966 31.3486C14.578 31.6436 15.1974 32.3809 15.4726 33.4427H15.4628Z" fill="#F7EBD0"/>
<path d="M9.16133 9.20951C9.06302 9.80921 8.62062 9.89769 8.14873 9.84853C7.88329 9.81904 7.60802 9.75022 7.33275 9.76005C7.32291 9.51428 7.34258 9.27833 7.47038 9.06205C8.04058 8.9834 8.59113 9.17019 9.16133 9.21934V9.20951Z" fill="#F7EBD0"/>
<path d="M7.47036 9.05188C7.34255 9.26816 7.31306 9.50411 7.33272 9.74989C7.00829 9.74989 6.67404 9.74989 6.34961 9.74989C6.39876 9.51394 6.43809 9.27799 6.48724 9.04205C6.81167 8.83559 7.14593 8.83559 7.47036 9.04205V9.05188Z" fill="#F7EBD0"/>
<path d="M37.75 41.9761C38.1432 41.3666 38.7626 41.6124 39.3033 41.5632C38.8806 42.0744 38.2416 41.7303 37.75 41.9761Z" fill="#F7EBD0"/>
<path d="M11.2653 10.0249C10.7443 10.0643 10.3216 9.8873 9.9873 9.48422C10.4985 9.47439 10.9114 9.68085 11.2653 10.0249Z" fill="#F7EBD0"/>
<path d="M49.8031 35.8222C49.7834 35.5174 49.8621 35.2814 50.216 35.252C50.1767 35.5174 50.1078 35.7533 49.8031 35.8222Z" fill="#ECE7DD"/>
<path d="M13.0741 31.339C12.8382 31.5258 12.6317 31.5455 12.5039 31.2112C12.7005 31.2014 12.9168 31.1424 13.0741 31.339Z" fill="#F7EBD0"/>
<path d="M36.2065 41.9668C36.3933 41.5833 36.59 41.5833 36.7767 41.9668C36.59 41.9668 36.4032 41.9668 36.2065 41.9668Z" fill="#F7EBD0"/>
<path d="M11.8252 10.1726C11.7072 10.1726 11.5991 10.1431 11.5303 10.0252C11.7367 9.84819 11.7761 10.0153 11.8252 10.1726Z" fill="#F7EBD0"/>
<path d="M40.5425 41.5439C40.5818 41.3866 40.6211 41.2293 40.8276 41.4063C40.7588 41.5144 40.6605 41.5538 40.5425 41.5439Z" fill="#ECE7DD"/>
<path d="M39.9917 41.5633C40.0802 41.4355 40.1687 41.4256 40.267 41.5436C40.1785 41.6812 40.09 41.6812 39.9917 41.5633Z" fill="#ECE7DD"/>
<path d="M29.3049 10.1921C27.0733 10.3789 24.7138 10.2511 22.3543 10.3101C20.8403 10.3494 19.3853 10.0741 17.9402 9.68087C17.2422 9.48425 16.5343 9.33679 15.8363 9.16966C15.2956 9.03202 15.04 8.74692 15.0302 8.12756C15.0007 6.38745 14.9908 6.42678 16.5048 5.68945C18.5104 4.71617 20.6437 4.16563 22.7377 3.45779C25.982 2.36653 29.3147 1.9143 32.6868 1.59971C35.1643 1.36376 37.6417 1.56038 40.0896 1.87498C42.5278 2.18957 44.9757 2.33704 47.404 2.63197C49.2326 2.85809 51.0317 3.28083 52.7521 3.97883C53.047 4.09681 53.3518 4.25411 53.6074 4.45073C54.3841 5.06026 54.4529 5.91556 53.8434 6.68239C53.3125 7.3509 52.6341 7.76381 51.8673 8.06857C49.2522 9.11067 46.588 9.78902 43.7075 9.76935C39.6964 9.74969 35.6951 10.3101 31.6742 10.1921C30.9271 10.1724 30.1799 10.1921 29.3049 10.1921Z" fill="#7F0709"/>
</g>
<defs>
<clipPath id="clip0_40_2677">
<rect width="56" height="42" fill="white"/>
</clipPath>
</defs>
</svg>
