<svg width="81" height="93" viewBox="0 0 81 93" fill="none" xmlns="http://www.w3.org/2000/svg">
<g clip-path="url(#clip0_32_2599)">
<path d="M30.9998 0C30.9998 0 36.9998 39 35.9998 42C34.9998 45 15.9999 47 14.9999 44C13.9999 41 13.9999 30 21.8499 16.23C21.9399 16.07 22.0398 15.92 22.1298 15.76C23.0898 13.97 29.1598 2.76 30.9998 0Z" fill="#222135"/>
<path d="M28.6199 7.18018C28.6199 7.18018 31.0299 35.6802 30.2799 37.8302C29.5299 39.9802 17.3099 40.8202 16.7799 38.6102C16.2499 36.4002 16.6499 28.4202 22.1699 18.6702C22.2299 18.5602 22.2999 18.4502 22.3699 18.3402C23.0499 17.0802 27.3399 9.13018 28.6199 7.18018Z" fill="#FAFBFE"/>
<path d="M49.6598 0C49.6598 0 43.6598 39 44.6598 42C45.6598 45 64.6598 47 65.6598 44C66.6598 41 66.6598 30 58.8098 16.23C58.7198 16.07 58.6198 15.92 58.5298 15.76C57.5698 13.97 51.4998 2.76 49.6598 0Z" fill="#222135"/>
<path d="M52.04 7.18018C52.04 7.18018 49.63 35.6802 50.38 37.8302C51.13 39.9802 63.35 40.8202 63.88 38.6102C64.41 36.4002 64.01 28.4202 58.49 18.6702C58.43 18.5602 58.36 18.4502 58.29 18.3402C57.61 17.0802 53.32 9.13018 52.04 7.18018Z" fill="#FAFBFE"/>
<path d="M81 69C76.24 66 75.28 61 75.28 61C74.33 55 72.42 53 72.42 53C77.18 53 79.09 50 79.09 50C73.37 47 69.56 42 69.56 42C68.61 40 66.7 37 66.7 37C71.46 32 71.46 28 71.46 28C66.7 32 58.12 32 58.12 32C59.07 27 58.12 26 58.12 26C56.21 30 51.45 30 51.45 30C48.76 29.29 44.66 29.09 42.47 29.03V29.01C42.47 29.01 42.72 29.01 41.22 29.01C41.06 29.01 40.97 29.01 40.97 29.01C40.7 29.01 40.39 29.01 40.02 29.01C40.02 29.01 39.91 29.01 39.72 29.01C38.37 29.02 32.87 29.14 29.55 30.01C29.55 30.01 24.79 30.01 22.88 26.01C22.88 26.01 21.93 27.01 22.88 32.01C22.88 32.01 14.3 32.01 9.54 28.01C9.54 28.01 9.54 32.01 14.3 37.01C14.3 37.01 12.39 40.01 11.44 42.01C11.44 42.01 7.63 47.01 1.91 50.01C1.91 50.01 3.82 53.01 8.58 53.01C8.58 53.01 6.67 55.01 5.72 61.01C5.72 61.01 4.77 66.01 0 69.01C0 69.01 6.67 76.01 20.01 79.01C20.01 79.01 13.34 80.01 8.57 80.01C8.57 80.01 21.91 87.01 22.86 88.01C22.86 88.01 29.17 92.72 40.01 92.98V93.01C40.17 93.01 40.32 93 40.49 93C40.65 93 40.8 93.01 40.97 93.01V92.98C51.81 92.71 58.12 88.01 58.12 88.01C59.07 87.01 72.41 80.01 72.41 80.01C67.65 80.01 60.97 79.01 60.97 79.01C74.31 76.01 80.98 69.01 80.98 69.01L81 69Z" fill="#222135"/>
<path d="M36 77C36 75 35 71 35 71C34 70 34 67 34 67C34 65 33 57 33 57C33 54 30 52 30 52C28 50 23 50 23 50C20 50 15 49 15 49C15.49 51.3 16.37 52.99 17 54C18.74 56.79 20.92 58.28 22 59C23.56 60.04 24.99 60.64 26 61C27.98 61.7 29.74 61.93 31 62C31 62 32 70 33 72C34 74 35 79 35 79C36 83 40 83 40 83V79C39 77 36 77 36 77ZM31.55 60.65C31.45 60.49 26.39 59.57 25.96 59.41C24.47 58.87 23.72 58.59 22.7 58.01C21.82 57.5 20.04 56.46 18.63 54.5C18.12 53.79 17.4 52.61 17 50.99C17 50.99 21.07 51.69 23.52 51.69C23.81 51.69 24.13 51.7 24.46 51.72C23.58 52.42 23 53.55 23 54.84C23 56.97 24.57 58.7 26.5 58.7C28.43 58.7 30 56.97 30 54.84C30 54.22 29.86 53.65 29.62 53.13C30.01 53.4 30.32 53.68 30.57 53.95C32.8 56.37 31.81 59.78 31.54 60.63L31.55 60.65Z" fill="#FAFBFE"/>
<path d="M23.0002 54.8602C23.0002 56.9902 24.5702 58.7202 26.5002 58.7202C28.4302 58.7202 30.0002 56.9902 30.0002 54.8602C30.0002 54.2402 29.8602 53.6702 29.6202 53.1502C29.6202 53.1502 29.6102 53.1502 29.6002 53.1402C28.7202 52.6902 27.4202 52.1502 25.7502 51.8802C25.2902 51.8102 24.8602 51.7602 24.4502 51.7402C23.5702 52.4402 22.9902 53.5702 22.9902 54.8602H23.0002Z" fill="#D13527"/>
<path d="M40 79V83C40 83 44 83 45 79C45 79 46 74 47 72C48 70 49 62 49 62C50.26 61.93 52.02 61.7 54 61C55.01 60.64 56.44 60.04 58 59C59.08 58.28 61.26 56.79 63 54C63.63 52.99 64.51 51.3 65 49C65 49 60 50 57 50C57 50 52 50 50 52C50 52 47 54 47 57C47 57 46 65 46 67C46 67 46 70 45 71C45 71 44 75 44 77C44 77 41 77 40 79ZM49.42 53.97C49.67 53.7 49.99 53.42 50.37 53.15C50.14 53.67 49.99 54.24 49.99 54.86C49.99 56.99 51.56 58.72 53.49 58.72C55.42 58.72 56.99 56.99 56.99 54.86C56.99 53.57 56.41 52.44 55.53 51.74C55.86 51.72 56.18 51.71 56.47 51.71C58.91 51.71 62.99 51.01 62.99 51.01C62.59 52.62 61.88 53.8 61.36 54.52C59.95 56.48 58.17 57.52 57.29 58.03C56.28 58.61 55.52 58.89 54.03 59.43C53.6 59.59 48.54 60.5 48.44 60.67C48.17 59.82 47.18 56.41 49.41 53.99L49.42 53.97Z" fill="#FAFBFE"/>
<path d="M57 54.8602C57 56.9902 55.43 58.7202 53.5 58.7202C51.57 58.7202 50 56.9902 50 54.8602C50 54.2402 50.14 53.6702 50.38 53.1502C50.38 53.1502 50.39 53.1502 50.4 53.1402C51.28 52.6902 52.58 52.1502 54.25 51.8802C54.71 51.8102 55.14 51.7602 55.55 51.7402C56.43 52.4402 57.01 53.5702 57.01 54.8602H57Z" fill="#D13527"/>
</g>
<defs>
<clipPath id="clip0_32_2599">
<rect width="81" height="93" fill="white"/>
</clipPath>
</defs>
</svg>
