<svg width="127" height="127" viewBox="0 0 127 127" fill="none" xmlns="http://www.w3.org/2000/svg">
<g clip-path="url(#clip0_33_2617)">
<g clip-path="url(#clip1_33_2617)">
<path d="M51.4817 0C51.4817 0 58.8891 48.0992 57.6545 51.7991C56.42 55.499 32.9632 57.9656 31.7286 54.2657C30.494 50.5658 30.494 36.9993 40.1854 20.0166C40.2965 19.8193 40.42 19.6343 40.5311 19.437C41.7163 17.2294 49.2101 3.40394 51.4817 0Z" fill="#222135"/>
<path d="M48.5437 8.85498C48.5437 8.85498 51.519 44.0044 50.593 46.656C49.6671 49.3076 34.5807 50.3436 33.9264 47.618C33.2721 44.8924 33.7659 35.0505 40.5807 23.0257C40.6548 22.8901 40.7412 22.7544 40.8276 22.6187C41.6671 21.0648 46.9634 11.2599 48.5437 8.85498Z" fill="#FAFBFE"/>
<path d="M74.5187 0C74.5187 0 67.1113 48.0992 68.3458 51.7991C69.5804 55.499 93.0372 57.9656 94.2718 54.2657C95.5063 50.5658 95.5063 36.9993 85.815 20.0166C85.7039 19.8193 85.5804 19.6343 85.4693 19.437C84.2841 17.2294 76.7903 3.40394 74.5187 0Z" fill="#222135"/>
<path d="M77.457 8.85498C77.457 8.85498 74.4817 44.0044 75.4076 46.656C76.3335 49.3076 91.42 50.3436 92.0743 47.618C92.7286 44.8924 92.2348 35.0505 85.42 23.0257C85.3459 22.8901 85.2595 22.7544 85.1731 22.6187C84.3336 21.0648 79.0373 11.2599 77.457 8.85498Z" fill="#FAFBFE"/>
<path d="M62.3828 110.998C62.3828 110.998 58.6791 122.098 56.2099 125.798C56.2099 125.798 40.1605 112.231 38.926 109.765C38.926 109.765 37.6914 107.298 37.6914 104.832C37.6914 104.832 57.4445 107.298 62.3828 110.998Z" fill="#7E0411"/>
<path d="M63.6172 110.998C63.6172 110.998 67.3209 122.098 69.79 125.798C69.79 125.798 85.8394 112.231 87.074 109.765C87.074 109.765 88.3085 107.298 88.3085 104.832C88.3085 104.832 68.5555 107.298 63.6172 110.998Z" fill="#7E0411"/>
<path d="M113 85.0983C107.123 81.3984 105.938 75.2318 105.938 75.2318C104.765 67.832 102.407 65.3653 102.407 65.3653C108.284 65.3653 110.642 61.6654 110.642 61.6654C103.58 57.9655 98.8765 51.7989 98.8765 51.7989C97.7037 49.3323 95.3457 45.6323 95.3457 45.6323C101.222 39.4658 101.222 34.5325 101.222 34.5325C95.3457 39.4658 84.7531 39.4658 84.7531 39.4658C85.9259 33.2992 84.7531 32.0659 84.7531 32.0659C82.3951 36.9992 76.5185 36.9992 76.5185 36.9992C73.1975 36.1235 68.1358 35.8769 65.4321 35.8029V35.7782C65.4321 35.7782 65.7407 35.7782 63.8889 35.7782C63.6914 35.7782 63.5802 35.7782 63.5802 35.7782C63.2469 35.7782 62.8642 35.7782 62.4074 35.7782C62.4074 35.7782 62.2716 35.7782 62.037 35.7782C60.3704 35.7905 53.5802 35.9385 49.4815 37.0115C49.4815 37.0115 43.6049 37.0115 41.2469 32.0783C41.2469 32.0783 40.0741 33.3116 41.2469 39.4781C41.2469 39.4781 30.6543 39.4781 24.7778 34.5449C24.7778 34.5449 24.7778 39.4781 30.6543 45.6447C30.6543 45.6447 28.2963 49.3446 27.1235 51.8112C27.1235 51.8112 22.4198 57.9778 15.358 61.6777C15.358 61.6777 17.716 65.3777 23.5926 65.3777C23.5926 65.3777 21.2346 67.8443 20.0617 75.2442C20.0617 75.2442 18.8889 81.4107 13 85.1107C13 85.1107 21.2346 93.7438 37.7037 97.4438C37.7037 97.4438 29.4691 98.6771 23.5802 98.6771C23.5802 98.6771 40.0494 107.31 41.2222 108.544C41.2222 108.544 49.0123 114.352 62.3951 114.673V114.71C62.5926 114.71 62.7778 114.698 62.9877 114.698C63.1852 114.698 63.3704 114.71 63.5802 114.71V114.673C76.963 114.34 84.7531 108.544 84.7531 108.544C85.9259 107.31 102.395 98.6771 102.395 98.6771C96.5185 98.6771 88.2716 97.4438 88.2716 97.4438C104.741 93.7438 112.975 85.1107 112.975 85.1107L113 85.0983Z" fill="#222135"/>
<path d="M58.0617 94.9649C58.0617 92.4982 56.8271 87.565 56.8271 87.565C55.5925 86.3317 55.5925 82.6317 55.5925 82.6317C55.5925 80.1651 54.358 70.2986 54.358 70.2986C54.358 66.5987 50.6543 64.1321 50.6543 64.1321C48.1851 61.6654 42.0123 61.6654 42.0123 61.6654C38.3086 61.6654 32.1357 60.4321 32.1357 60.4321C32.7407 63.2687 33.8271 65.353 34.6049 66.5987C36.753 70.0396 39.4444 71.8773 40.7777 72.7652C42.7036 74.0479 44.4691 74.7879 45.716 75.2319C48.1604 76.0952 50.3333 76.3789 51.8888 76.4652C51.8888 76.4652 53.1234 86.3317 54.358 88.7983C55.5925 91.2649 56.8271 97.4315 56.8271 97.4315C58.0617 102.365 62.9999 102.365 62.9999 102.365V97.4315C61.7654 94.9649 58.0617 94.9649 58.0617 94.9649ZM52.5678 74.8002C52.4444 74.6029 46.1975 73.4682 45.6666 73.2709C43.8271 72.6049 42.9012 72.2596 41.6419 71.5443C40.5555 70.9153 38.358 69.6326 36.6172 67.2153C35.9876 66.3397 35.0987 64.8844 34.6049 62.8864C34.6049 62.8864 39.6296 63.7497 42.6543 63.7497C43.0123 63.7497 43.4073 63.7621 43.8148 63.7867C42.7283 64.6501 42.0123 66.0437 42.0123 67.6347C42.0123 70.2616 43.9506 72.3953 46.3333 72.3953C48.716 72.3953 50.6543 70.2616 50.6543 67.6347C50.6543 66.87 50.4814 66.167 50.1851 65.5257C50.6666 65.8587 51.0493 66.204 51.358 66.537C54.1111 69.5216 52.8888 73.7272 52.5555 74.7755L52.5678 74.8002Z" fill="#FAFBFE"/>
<path d="M42.0123 67.6595C42.0123 70.2864 43.9506 72.42 46.3333 72.42C48.716 72.42 50.6543 70.2864 50.6543 67.6595C50.6543 66.8948 50.4815 66.1918 50.1852 65.5505C50.1852 65.5505 50.1728 65.5505 50.1605 65.5382C49.0741 64.9832 47.4691 64.3172 45.4074 63.9842C44.8395 63.8979 44.3086 63.8362 43.8025 63.8115C42.7161 64.6748 42 66.0685 42 67.6595H42.0123Z" fill="#D13527"/>
<path d="M63 97.4315V102.365C63 102.365 67.9383 102.365 69.1728 97.4315C69.1728 97.4315 70.4074 91.2649 71.642 88.7983C72.8765 86.3317 74.1111 76.4652 74.1111 76.4652C75.6667 76.3789 77.8395 76.0952 80.284 75.2319C81.5309 74.7879 83.2963 74.0479 85.2222 72.7652C86.5556 71.8773 89.2469 70.0396 91.3951 66.5987C92.1728 65.353 93.2593 63.2687 93.8642 60.4321C93.8642 60.4321 87.6914 61.6654 83.9877 61.6654C83.9877 61.6654 77.8148 61.6654 75.3457 64.1321C75.3457 64.1321 71.642 66.5987 71.642 70.2986C71.642 70.2986 70.4074 80.1651 70.4074 82.6317C70.4074 82.6317 70.4074 86.3317 69.1728 87.565C69.1728 87.565 67.9383 92.4982 67.9383 94.9649C67.9383 94.9649 64.2346 94.9649 63 97.4315ZM74.6296 66.5617C74.9383 66.2287 75.3333 65.8834 75.8025 65.5504C75.5185 66.1917 75.3333 66.8947 75.3333 67.6593C75.3333 70.2863 77.2716 72.4199 79.6543 72.4199C82.037 72.4199 83.9753 70.2863 83.9753 67.6593C83.9753 66.0684 83.2593 64.6747 82.1728 63.8114C82.5802 63.7867 82.9753 63.7744 83.3333 63.7744C86.3457 63.7744 91.3827 62.9111 91.3827 62.9111C90.8889 64.8967 90.0123 66.352 89.3704 67.24C87.6296 69.6573 85.4321 70.9399 84.3457 71.5689C83.0988 72.2843 82.1605 72.6296 80.321 73.2956C79.7901 73.4929 73.5432 74.6152 73.4198 74.8249C73.0864 73.7766 71.8642 69.571 74.6173 66.5864L74.6296 66.5617Z" fill="#FAFBFE"/>
<path d="M83.9877 67.6595C83.9877 70.2864 82.0494 72.42 79.6667 72.42C77.284 72.42 75.3457 70.2864 75.3457 67.6595C75.3457 66.8948 75.5185 66.1918 75.8148 65.5505C75.8148 65.5505 75.8272 65.5505 75.8395 65.5382C76.926 64.9832 78.5309 64.3172 80.5926 63.9842C81.1605 63.8979 81.6914 63.8362 82.1976 63.8115C83.284 64.6748 84 66.0685 84 67.6595H83.9877Z" fill="#D13527"/>
<path d="M63.0002 111.528H62.9878C60.0082 111.528 57.5928 113.941 57.5928 116.918V120.26C57.5928 123.237 60.0082 125.65 62.9878 125.65H63.0002C65.9798 125.65 68.3952 123.237 68.3952 120.26V116.918C68.3952 113.941 65.9798 111.528 63.0002 111.528Z" fill="#FFC95F"/>
<path d="M64.4199 113.07H61.5681C61.0125 113.07 60.6298 112.676 60.8026 112.293L61.0619 111.726C61.3088 111.196 61.9878 110.838 62.7533 110.838H63.2471C64.0125 110.838 64.6915 111.196 64.9384 111.726L65.1977 112.293C65.3705 112.676 64.9878 113.07 64.4323 113.07H64.4199Z" fill="#FFC95F"/>
<path d="M64.4199 124.083H61.5681C61.0125 124.083 60.6298 124.478 60.8026 124.86L61.0619 125.428C61.3088 125.958 61.9878 126.316 62.7533 126.316H63.2471C64.0125 126.316 64.6915 125.958 64.9384 125.428L65.1977 124.86C65.3705 124.478 64.9878 124.083 64.4323 124.083H64.4199Z" fill="#FFC95F"/>
<path d="M62.9632 124.38C65.261 124.38 67.1237 121.735 67.1237 118.472C67.1237 115.209 65.261 112.564 62.9632 112.564C60.6655 112.564 58.8027 115.209 58.8027 118.472C58.8027 121.735 60.6655 124.38 62.9632 124.38Z" fill="#D13527"/>
</g>
</g>
<defs>
<clipPath id="clip0_33_2617">
<rect width="126.32" height="126.32" fill="white"/>
</clipPath>
<clipPath id="clip1_33_2617">
<rect width="100" height="126.316" fill="white" transform="translate(13)"/>
</clipPath>
</defs>
</svg>
